<svg xmlns="http://www.w3.org/2000/svg" width="24" height="24" viewBox="0 0 24 24"><defs><style>.a{fill:#fff;}</style></defs><path class="a" d="M81.313,76.333H79.7a.5.5,0,0,1-.4-.795,1.538,1.538,0,0,1,2.413-.011.5.5,0,0,1-.4.806ZM72.261,77H70.5a.5.5,0,0,0-.5.5v1.01a.5.5,0,0,0,.5.5h1.728C74.264,79.01,74.139,77,72.261,77Zm-.08-4H70.5a.5.5,0,0,0-.5.5v1a.5.5,0,0,0,.5.5h1.889C74.063,75,74.327,73,72.181,73ZM88,64.5v23a.5.5,0,0,1-.5.5h-23a.5.5,0,0,1-.5-.5v-23a.5.5,0,0,1,.5-.5h23A.5.5,0,0,1,88,64.5ZM78.5,72h4a.5.5,0,0,0,.5-.5h0a.5.5,0,0,0-.5-.5h-4a.5.5,0,0,0-.5.5h0A.5.5,0,0,0,78.5,72Zm-3.443,3.961a.5.5,0,0,1-.056-.75c1.3-1.309.885-4.151-2.366-4.2H68.5a.5.5,0,0,0-.5.5v8.981a.5.5,0,0,0,.5.5h3.813C76.393,80.992,76.728,77.3,75.057,75.961Zm8.875.259a3.344,3.344,0,0,0-3.583-2.95c-2.1,0-3.352,1.34-3.352,3.947C77,79.848,78.365,81,80.414,81a3.718,3.718,0,0,0,2.916-1.178A.5.5,0,0,0,82.95,79H81.908a.5.5,0,0,0-.32.116,1.671,1.671,0,0,1-2.6-.854.5.5,0,0,1,.487-.615H83.5a.5.5,0,0,0,.5-.507,6.975,6.975,0,0,0-.063-.92Z" transform="translate(-64 -64)"/></svg>