<svg xmlns="http://www.w3.org/2000/svg" width="24" height="24" viewBox="0 0 24 24"><defs><style>.a{fill:#fff;}</style></defs><path class="a" d="M81,66a5.015,5.015,0,0,1,5,5V81a5.015,5.015,0,0,1-5,5H71a5.015,5.015,0,0,1-5-5V71a5.015,5.015,0,0,1,5-5H81m0-2H71a7.021,7.021,0,0,0-7,7V81a7.021,7.021,0,0,0,7,7H81a7.021,7.021,0,0,0,7-7V71A7.021,7.021,0,0,0,81,64Z" transform="translate(-64 -64)"/><path class="a" d="M172.6,131.024a1.508,1.508,0,1,1,1.07-.442A1.512,1.512,0,0,1,172.6,131.024Zm-6.553,1.008a4.033,4.033,0,1,1-4.033,4.033,4.033,4.033,0,0,1,4.033-4.033m0-2.016a6.049,6.049,0,1,0,6.049,6.049A6.049,6.049,0,0,0,166.049,130.016Z" transform="translate(-154.068 -124.046)"/></svg>