<svg xmlns="http://www.w3.org/2000/svg" width="98.215" height="24" viewBox="0 0 98.215 24"><defs><style>.a{fill:#fff;}.b{fill:#88fd90;}</style></defs><g transform="translate(49.108 12)"><g transform="translate(-49.108 -12)"><path class="a" d="M19.743,247.2a5.472,5.472,0,0,1-.479,1.262,6.117,6.117,0,0,1-1.885,2.151,8.36,8.36,0,0,1-2.713,1.239,12.213,12.213,0,0,1-3.123.4H0v-2.8Z" transform="translate(0 -228.414)"/><path class="a" d="M18.854,13.062,0,19.043V-.009H11.217a14.842,14.842,0,0,1,3.1.3,6.517,6.517,0,0,1,2.4.988A4.567,4.567,0,0,1,18.269,3.1a5.3,5.3,0,0,1,.456,1.5,7.964,7.964,0,0,1,.1,1.3,5.2,5.2,0,0,1-.821,3,5.972,5.972,0,0,1-2.417,1.968A5.685,5.685,0,0,1,18.854,13.062Z" transform="translate(0 0.009)"/><path class="a" d="M285.3,208.918v5.266h4.909v-5.829Zm8.633-.98,2.189,6.247h4.035l2.508-7.242Zm12.129-1.375v7.615h4.9V206Z" transform="translate(-263.619 -190.344)"/><path class="a" d="M295.7,11.833l-10.4,3.3V3.2h7.455Z" transform="translate(-263.619 -2.956)"/><path class="a" d="M505.659,3.2V7L496,10.047,498.189,3.2Z" transform="translate(-458.307 -2.956)"/><g transform="translate(54.807 4.036)"><path class="b" d="M725.578,53.1a5.662,5.662,0,0,1,1.185.114,2.561,2.561,0,0,1,.919.372,1.748,1.748,0,0,1,.593.692,2.441,2.441,0,0,1,.213,1.072,1.989,1.989,0,0,1-.312,1.148,2.265,2.265,0,0,1-.927.752,2.184,2.184,0,0,1,1.254.844,2.566,2.566,0,0,1,.418,1.459,2.5,2.5,0,0,1-.266,1.193,2.318,2.318,0,0,1-.722.821,3.178,3.178,0,0,1-1.034.471,4.652,4.652,0,0,1-1.193.152H721.3V53.1Zm-.258,3.686a1.444,1.444,0,0,0,.882-.258.945.945,0,0,0,.342-.828,1.056,1.056,0,0,0-.114-.524.851.851,0,0,0-.3-.319,1.292,1.292,0,0,0-.441-.16,2.936,2.936,0,0,0-.517-.046H723.3v2.128Zm.114,3.861a2.689,2.689,0,0,0,.562-.061,1.375,1.375,0,0,0,.471-.19.965.965,0,0,0,.327-.365,1.253,1.253,0,0,0,.122-.585,1.187,1.187,0,0,0-.4-1,1.629,1.629,0,0,0-1.041-.3H723.3v2.5Z" transform="translate(-721.292 -53.097)"/><path class="b" d="M833.5,54.589V53.1h1.809v1.489Zm1.809,1.018V62.2H833.5V55.615Z" transform="translate(-824.966 -53.1)"/><path class="b" d="M875.544,91.135a2.235,2.235,0,0,1-.464.95,2.751,2.751,0,0,1-1.034.745,4.476,4.476,0,0,1-1.809.3,4.217,4.217,0,0,1-.988-.122,3.137,3.137,0,0,1-.919-.372,2.256,2.256,0,0,1-.692-.654,1.9,1.9,0,0,1-.312-.965h1.793a1.043,1.043,0,0,0,.494.707,1.786,1.786,0,0,0,.851.2,1.318,1.318,0,0,0,1.117-.456,1.79,1.79,0,0,0,.334-1.163v-.866h-.023a1.794,1.794,0,0,1-.836.768,2.705,2.705,0,0,1-1.14.251,2.88,2.88,0,0,1-1.277-.258,2.417,2.417,0,0,1-.882-.714,2.972,2.972,0,0,1-.5-1.056,5,5,0,0,1-.16-1.277,4.1,4.1,0,0,1,.182-1.231,3.216,3.216,0,0,1,.54-1.041,2.622,2.622,0,0,1,.889-.722,2.659,2.659,0,0,1,1.216-.266,2.553,2.553,0,0,1,1.14.243,1.947,1.947,0,0,1,.821.813h.023v-.882h1.718v6.163A4.435,4.435,0,0,1,875.544,91.135Zm-2.477-2.189a1.414,1.414,0,0,0,.486-.41,1.809,1.809,0,0,0,.289-.578,2.4,2.4,0,0,0,.1-.684,3.739,3.739,0,0,0-.076-.768,1.924,1.924,0,0,0-.258-.646,1.33,1.33,0,0,0-.471-.448,1.489,1.489,0,0,0-.737-.167,1.33,1.33,0,0,0-.654.152,1.375,1.375,0,0,0-.456.418,1.746,1.746,0,0,0-.266.6,2.952,2.952,0,0,0-.084.707,3.6,3.6,0,0,0,.068.707,1.908,1.908,0,0,0,.243.631,1.413,1.413,0,0,0,.456.456,1.277,1.277,0,0,0,.7.175A1.436,1.436,0,0,0,873.067,88.947Z" transform="translate(-857.86 -81.552)"/><path class="b" d="M975.419,53.1l2.128,6.254h.023l2.014-6.254H982.4v9.1h-1.869V55.752h-.023L978.284,62.2h-1.543l-2.227-6.384h-.023V62.2H972.6V53.1Z" transform="translate(-953.495 -53.1)"/><path class="b" d="M1114.714,86a2.08,2.08,0,0,1,.319-1.056,2.164,2.164,0,0,1,.714-.676,3.116,3.116,0,0,1,.973-.365,5.564,5.564,0,0,1,1.087-.106,7.393,7.393,0,0,1,1,.068,3.086,3.086,0,0,1,.927.274,1.829,1.829,0,0,1,.691.57,1.6,1.6,0,0,1,.266.965V89.1a6.882,6.882,0,0,0,.053.85,1.546,1.546,0,0,0,.175.61h-1.831a2.568,2.568,0,0,1-.084-.312,2.679,2.679,0,0,1-.046-.327,2.355,2.355,0,0,1-1.018.623,4.1,4.1,0,0,1-1.2.175,3.229,3.229,0,0,1-.881-.114,2.013,2.013,0,0,1-.714-.357,1.664,1.664,0,0,1-.479-.608,2.067,2.067,0,0,1-.175-.882,1.933,1.933,0,0,1,.2-.927,1.648,1.648,0,0,1,.509-.578,2.282,2.282,0,0,1,.714-.327,7.655,7.655,0,0,1,.806-.175q.41-.061.806-.1a4.873,4.873,0,0,0,.7-.114,1.223,1.223,0,0,0,.486-.22.486.486,0,0,0,.167-.426.958.958,0,0,0-.1-.464.707.707,0,0,0-.258-.266,1,1,0,0,0-.372-.129,3.033,3.033,0,0,0-.456-.03,1.4,1.4,0,0,0-.844.228,1,1,0,0,0-.357.768Zm4.18,1.338a.815.815,0,0,1-.289.16,2.927,2.927,0,0,1-.372.1l-.411.061-.433.061a3.243,3.243,0,0,0-.4.1,1.187,1.187,0,0,0-.342.175.821.821,0,0,0-.235.274.883.883,0,0,0-.091.418.853.853,0,0,0,.091.41.684.684,0,0,0,.243.258,1.018,1.018,0,0,0,.357.137,2.27,2.27,0,0,0,.418.038,1.639,1.639,0,0,0,.828-.175,1.191,1.191,0,0,0,.433-.426,1.368,1.368,0,0,0,.175-.5,3.523,3.523,0,0,0,.031-.41Z" transform="translate(-1084.605 -81.467)"/><path class="b" d="M1212.733,83.982v.912h.038a2.075,2.075,0,0,1,.889-.836,2.584,2.584,0,0,1,1.125-.258,3.07,3.07,0,0,1,1.193.2,1.771,1.771,0,0,1,.729.547,2.119,2.119,0,0,1,.372.851,5.322,5.322,0,0,1,.106,1.117v4.05h-1.809V86.84a2.284,2.284,0,0,0-.258-1.216.991.991,0,0,0-.9-.4,1.259,1.259,0,0,0-1.072.441,2.424,2.424,0,0,0-.334,1.444v3.45H1211V83.982Z" transform="translate(-1173.778 -81.467)"/><path class="b" d="M724.019,193.9l2.128,6.254h.023l2.014-6.254H731V203h-1.877v-6.444H729.1L726.877,203h-1.543l-2.227-6.384h-.023V203H721.2v-9.1Z" transform="translate(-721.2 -183.2)"/><path class="b" d="M865.239,229.865a1.852,1.852,0,0,0,2.113.122,1.148,1.148,0,0,0,.486-.578h1.6a3.011,3.011,0,0,1-1.17,1.695,3.447,3.447,0,0,1-1.907.509,3.769,3.769,0,0,1-1.4-.251,2.91,2.91,0,0,1-1.056-.707,3.177,3.177,0,0,1-.669-1.094,4.007,4.007,0,0,1-.236-1.4,3.84,3.84,0,0,1,.243-1.376A3.185,3.185,0,0,1,865,224.956a3.412,3.412,0,0,1,1.368-.266,3.131,3.131,0,0,1,1.467.327,2.925,2.925,0,0,1,1.026.874,3.593,3.593,0,0,1,.578,1.246,4.66,4.66,0,0,1,.129,1.467h-4.773A1.8,1.8,0,0,0,865.239,229.865Zm2.044-3.465a1.274,1.274,0,0,0-.988-.357,1.572,1.572,0,0,0-.722.144,1.375,1.375,0,0,0-.456.365,1.329,1.329,0,0,0-.243.456,2.064,2.064,0,0,0-.084.433h2.941A2.044,2.044,0,0,0,867.283,226.4Z" transform="translate(-852.221 -211.649)"/><path class="b" d="M961.054,202.153a1.87,1.87,0,0,1-.836.768,2.775,2.775,0,0,1-1.163.236,2.819,2.819,0,0,1-1.3-.289,2.607,2.607,0,0,1-.927-.775,3.517,3.517,0,0,1-.547-1.125,4.733,4.733,0,0,1-.182-1.322,4.449,4.449,0,0,1,.182-1.284,3.329,3.329,0,0,1,.547-1.087,2.66,2.66,0,0,1,2.189-1.041,2.591,2.591,0,0,1,1.117.251,1.946,1.946,0,0,1,.836.73h.023V193.9H962.8V203h-1.717v-.844Zm-.076-3.253a1.921,1.921,0,0,0-.258-.661,1.475,1.475,0,0,0-.479-.464,1.4,1.4,0,0,0-.737-.175,1.474,1.474,0,0,0-.752.175,1.414,1.414,0,0,0-.494.471,2.081,2.081,0,0,0-.266.669,3.625,3.625,0,0,0-.084.783,3.345,3.345,0,0,0,.091.768,2.074,2.074,0,0,0,.289.684,1.587,1.587,0,0,0,.494.486,1.346,1.346,0,0,0,.722.182,1.436,1.436,0,0,0,.745-.175,1.352,1.352,0,0,0,.479-.479,2.133,2.133,0,0,0,.258-.684,4.014,4.014,0,0,0,.076-.79A3.931,3.931,0,0,0,960.978,198.9Z" transform="translate(-938.248 -183.2)"/><path class="b" d="M1059.3,195.389V193.9h1.809v1.489Zm1.809,1.018V203H1059.3v-6.589Z" transform="translate(-1033.606 -183.2)"/><path class="b" d="M1094.613,226.8a2.081,2.081,0,0,1,.319-1.056,2.164,2.164,0,0,1,.714-.676,3.114,3.114,0,0,1,.973-.365,5.562,5.562,0,0,1,1.087-.106,7.39,7.39,0,0,1,1,.068,3.085,3.085,0,0,1,.927.274,1.833,1.833,0,0,1,.692.57,1.6,1.6,0,0,1,.266.965V229.9a6.859,6.859,0,0,0,.053.85,1.542,1.542,0,0,0,.175.61h-1.831a2.545,2.545,0,0,1-.084-.312,2.68,2.68,0,0,1-.046-.327,2.356,2.356,0,0,1-1.018.623,4.1,4.1,0,0,1-1.2.175,3.23,3.23,0,0,1-.882-.114,2.013,2.013,0,0,1-.714-.357,1.663,1.663,0,0,1-.479-.608,2.067,2.067,0,0,1-.175-.882,1.936,1.936,0,0,1,.2-.927,1.648,1.648,0,0,1,.509-.578,2.279,2.279,0,0,1,.714-.327,7.639,7.639,0,0,1,.805-.175q.41-.061.805-.1a4.87,4.87,0,0,0,.7-.114,1.224,1.224,0,0,0,.486-.22.486.486,0,0,0,.167-.426.96.96,0,0,0-.1-.464.708.708,0,0,0-.259-.266,1,1,0,0,0-.372-.129,3.034,3.034,0,0,0-.456-.03,1.4,1.4,0,0,0-.844.228,1,1,0,0,0-.357.768Zm4.18,1.338a.813.813,0,0,1-.289.16,2.933,2.933,0,0,1-.372.1l-.41.061-.433.061a3.242,3.242,0,0,0-.4.1,1.187,1.187,0,0,0-.342.175.819.819,0,0,0-.236.274.88.88,0,0,0-.091.418.85.85,0,0,0,.091.41.683.683,0,0,0,.243.258,1.018,1.018,0,0,0,.357.137,2.27,2.27,0,0,0,.418.038,1.638,1.638,0,0,0,.828-.175,1.192,1.192,0,0,0,.433-.426,1.366,1.366,0,0,0,.175-.5,3.47,3.47,0,0,0,.03-.41Z" transform="translate(-1066.032 -211.567)"/></g></g></g></svg>